:FULLY-SPECIFIED
:FORCE-ALL-JOINTS-BE-3DOF
:DEGREES
501
root 10.604 16.9055 34.1124 5.76066 4.69468 5.16053
lfemur 19.6175 1.3179 -27.9269
ltibia -3.60463e-14 0 0
lfoot -16.1584 4.24211 0.000117383
ltoes -4.83931 0 0
rfemur -42.5611 8.99062 10.9701
rtibia 28.2341 -0 0
rfoot -24.5665 -13.2811 0
rtoes -26.2908 0 0
lowerback -7.73402 -5.32761 -6.0466
upperback 0.687698 -6.61389 1.46086
thorax 5.91831 -3.47729 4.02183
lowerneck -23.6807 -2.62098 -10.0439
upperneck 23.7672 -3.22004 11.2446
head 12.1159 -0.885495 5.43582
lclavicle 3.21367e-15 2.12039e-15 0
lhumerus -15.9436 -25.3147 88.4152
lradius 34.9767 -0 0
lwrist 6.86453 0 0
lhand -16.3396 -26.8987 0.00413324
lfingers 7.12502 0 0
lthumb 9.87196 2.83649 0.0016284
rclavicle 3.21367e-15 2.12039e-15 0
rhumerus -49.1226 5.22453 -83.5247
rradius 31.9834 -0 0
rwrist -16.1914 0 0
rhand -29.235 -22.4897 -0.016458
rfingers 7.12502 0 0
rthumb -2.57866 -52.453 -0.0159331
502
root 10.5791 16.8843 34.2874 5.84235 4.77879 5.0494
lfemur 20.1626 1.18429 -27.6224
ltibia -2.70347e-14 0 0
lfoot -15.909 4.24885 0.000132056
ltoes -6.0099 0 0
rfemur -42.5756 8.33091 11.6593
rtibia 28.9826 -0 0
rfoot -24.5665 -13.2811 0
rtoes -26.2908 0 0
lowerback -7.68982 -5.31971 -5.92058
upperback 0.577259 -6.62176 1.50688
thorax 5.76794 -3.4724 4.00922
lowerneck -23.6636 -2.64707 -10.1196
upperneck 23.6881 -3.23013 11.2663
head 12.085 -0.894187 5.45171
lclavicle 1.60518e-14 -1.19268e-15 0
lhumerus -16.7604 -25.3312 88.9772
lradius 34.8191 -0 0
lwrist 7.20304 0 0
lhand -15.5011 -26.8281 0.00464998
lfingers 7.12502 0 0
lthumb 10.6807 2.86533 0.00183198
rclavicle 1.60518e-14 -1.19268e-15 0
rhumerus -49.2793 4.86509 -83.2612
rradius 31.4036 -0 0
rwrist -15.795 0 0
rhand -29.0064 -23.5212 -0.0185158
rfingers 7.12502 0 0
rthumb -2.35788 -53.4869 -0.0179253
503
root 10.5542 16.863 34.4624 5.92388 4.86305 4.93838
lfemur 20.7069 1.04778 -27.3192
ltibia -1.80231e-14 0 0
lfoot -15.6596 4.2556 0.000117383
ltoes -7.18048 0 0
rfemur -42.5981 7.67143 12.3475
rtibia 29.731 -0 0
rfoot -24.5665 -13.2811 0
rtoes -26.2908 0 0
lowerback -7.64559 -5.31191 -5.79454
upperback 0.466811 -6.62954 1.55291
thorax 5.61757 -3.46753 3.99659
lowerneck -23.6464 -2.67314 -10.1953
upperneck 23.609 -3.2402 11.2879
head 12.0541 -0.902871 5.4676
lclavicle 2.889e-14 -4.50576e-15 0
lhumerus -17.5775 -25.3405 89.5394
lradius 34.6615 -0 0
lwrist 7.54154 0 0
lhand -14.6626 -26.7575 0.00413324
lfingers 7.12502 0 0
lthumb 11.4895 2.89417 0.0016284
rclavicle 2.889e-14 -4.50576e-15 0
rhumerus -49.4376 4.50638 -82.9969
rradius 30.8239 -0 0
rwrist -15.3985 0 0
rhand -28.7778 -24.5527 -0.016458
rfingers 7.12502 0 0
rthumb -2.13709 -54.5208 -0.0159331
504
root 10.5294 16.8417 34.6374 6.00526 4.94746 4.82746
lfemur 21.2505 0.908407 -27.0174
ltibia -9.01157e-15 0 0
lfoot -15.4102 4.26234 7.33643e-05
ltoes -8.35106 0 0
rfemur -42.6285 7.01226 13.0349
rtibia 30.4795 -0 0
rfoot -24.5665 -13.2811 0
rtoes -26.2908 0 0
lowerback -7.60135 -5.30421 -5.6685
upperback 0.356356 -6.63724 1.59896
thorax 5.46721 -3.4627 3.98395
lowerneck -23.6292 -2.69919 -10.271
upperneck 23.5299 -3.25024 11.3096
head 12.0231 -0.911546 5.48349
lclavicle 4.17282e-14 -7.81883e-15 0
lhumerus -18.3947 -25.3425 90.1017
lradius 34.5038 -0 0
lwrist 7.88005 0 0
lhand -13.8242 -26.6869 0.00258313
lfingers 7.12502 0 0
lthumb 12.2982 2.92301 0.0010177
rclavicle 4.17282e-14 -7.81883e-15 0
rhumerus -49.5974 4.1484 -82.7317
rradius 30.2442 -0 0
rwrist -15.002 0 0
rhand -28.5493 -25.5842 -0.0102854
rfingers 7.12502 0 0
rthumb -1.91637 -55.5547 -0.00995734
505
root 10.5045 16.8204 34.8124 6.08648 5.03204 4.71665
lfemur 21.7933 0.766176 -26.7169
ltibia 0 0 0
lfoot -15.1608 4.26908 0
ltoes -9.52164 0 0
rfemur -42.6668 6.3535 13.7218
rtibia 31.228 0 0
rfoot -24.5665 -13.2811 0
rtoes -26.2908 0 0
lowerback -7.5571 -5.2966 -5.54246
upperback 0.245892 -6.64484 1.64502
thorax 5.31684 -3.4579 3.9713
lowerneck -23.612 -2.72521 -10.3467
upperneck 23.4508 -3.26025 11.3313
head 11.9922 -0.920213 5.49939
lclavicle 5.45664e-14 -1.11319e-14 0
lhumerus -19.2118 -25.3373 90.664
lradius 34.3462 0 0
lwrist 8.21855 0 0
lhand -12.9857 -26.6163 0
lfingers 7.12502 0 0
lthumb 13.107 2.95184 0
rclavicle 5.45664e-14 -1.11319e-14 0
rhumerus -49.7588 3.79117 -82.4656
rradius 29.6645 0 0
rwrist -14.6055 0 0
rhand -28.3209 -26.6156 0
rfingers 7.12502 0 0
rthumb -1.6958 -56.5886 0
506
root 10.4803 16.8163 34.9926 6.07656 4.91514 4.4641
lfemur 22.3923 0.855791 -26.2973
ltibia 1.7493e-14 0 0
lfoot -14.3483 4.34741 0.00277796
ltoes -11.1729 0 0
rfemur -42.6759 5.8007 14.5048
rtibia 32.1451 -0 0
rfoot -24.5665 -13.2811 0
rtoes -26.2908 0 0
lowerback -7.38466 -5.21896 -5.28682
upperback 0.1514 -6.57741 1.7316
thorax 5.09466 -3.4138 3.949
lowerneck -23.7736 -2.7299 -10.2701
upperneck 23.4353 -3.24843 11.2283
head 12.0126 -0.917156 5.44881
lclavicle 4.86029e-14 -7.02368e-15 0
lhumerus -20.1308 -24.5421 91.1839
lradius 33.7517 -0 0
lwrist 7.521 0 0
lhand -12.4143 -26.3632 0.00631157
lfingers 7.12502 0 0
lthumb 13.6575 3.16456 0.0051105
rclavicle 4.86029e-14 -7.02368e-15 0
rhumerus -49.8046 3.33318 -82.0117
rradius 29.0796 -0 0
rwrist -13.9189 0 0
rhand -28.3981 -25.9749 -0.00215801
rfingers 7.12502 0 0
rthumb -1.77034 -55.9472 -0.00208659
507
root 10.4561 16.8121 35.1728 6.06716 4.79819 4.21161
lfemur 22.992 0.941014 -25.8768
ltibia 3.4986e-14 0 0
lfoot -13.5358 4.42577 0.00444496
ltoes -12.8241 0 0
rfemur -42.6927 5.24809 15.2872
rtibia 33.0621 -0 0
rfoot -24.5665 -13.2811 0
rtoes -26.2908 0 0
lowerback -7.21189 -5.14208 -5.03097
upperback 0.0570234 -6.50983 1.81806
thorax 4.87247 -3.36978 3.92653
lowerneck -23.9352 -2.73438 -10.1935
upperneck 23.4198 -3.23664 11.1253
head 12.0331 -0.914081 5.39822
lclavicle 4.26393e-14 -2.91547e-15 0
lhumerus -21.0362 -23.7394 91.6866
lradius 33.1572 -0 0
lwrist 6.82345 0 0
lhand -11.8429 -26.1101 0.0100988
lfingers 7.12502 0 0
lthumb 14.208 3.37731 0.00817702
rclavicle 4.26393e-14 -2.91547e-15 0
rhumerus -49.854 2.87557 -81.5577
rradius 28.4947 -0 0
rwrist -13.2323 0 0
rhand -28.4753 -25.3341 -0.00345292
rfingers 7.12502 0 0
rthumb -1.84489 -55.3058 -0.00333866
508
root 10.4319 16.808 35.353 6.05828 4.68121 3.95918
lfemur 23.5922 1.02183 -25.4555
ltibia 5.2479e-14 0 0
lfoot -12.7233 4.50414 0.00500067
ltoes -14.4753 0 0
rfemur -42.7169 4.69574 16.0691
rtibia 33.9792 -0 0
rfoot -24.5665 -13.2811 0
rtoes -26.2908 0 0
lowerback -7.03879 -5.06597 -4.77493
upperback -0.0372379 -6.44211 1.90439
thorax 4.65028 -3.32585 3.90389
lowerneck -24.0968 -2.73864 -10.1169
upperneck 23.4042 -3.22487 11.0223
head 12.0535 -0.910989 5.34764
lclavicle 3.66758e-14 1.19275e-15 0
lhumerus -21.9284 -22.9297 92.1724
lradius 32.5628 -0 0
lwrist 6.12591 0 0
lhand -11.2715 -25.8569 0.0113613
lfingers 7.12502 0 0
lthumb 14.7585 3.59009 0.00919923
rclavicle 3.66758e-14 1.19275e-15 0
rhumerus -49.907 2.41837 -81.1034
rradius 27.9098 -0 0
rwrist -12.5457 0 0
rhand -28.5525 -24.6934 -0.00388457
rfingers 7.12502 0 0
rthumb -1.91945 -54.6643 -0.00375603
509
root 10.4077 16.8039 35.5333 6.04991 4.56418 3.70681
lfemur 24.1931 1.09822 -25.0332
ltibia 6.9972e-14 0 0
lfoot -11.9109 4.58251 0.00444496
ltoes -16.1265 0 0
rfemur -42.7487 4.14379 16.8506
rtibia 34.8962 -0 0
rfoot -24.5665 -13.2811 0
rtoes -26.2908 0 0
lowerback -6.86538 -4.99064 -4.51868
upperback -0.131384 -6.37426 1.9906
thorax 4.42808 -3.28201 3.88108
lowerneck -24.2584 -2.74269 -10.0403
upperneck 23.3886 -3.21314 10.9193
head 12.0739 -0.907878 5.29706
lclavicle 3.07123e-14 5.30097e-15 0
lhumerus -22.808 -22.1131 92.6416
lradius 31.9683 -0 0
lwrist 5.42836 0 0
lhand -10.7 -25.6037 0.0100988
lfingers 7.12502 0 0
lthumb 15.309 3.80287 0.00817702
rclavicle 3.07123e-14 5.30097e-15 0
rhumerus -49.9636 1.96159 -80.6488
rradius 27.325 -0 0
rwrist -11.8592 0 0
rhand -28.6296 -24.0526 -0.00345292
rfingers 7.12502 0 0
rthumb -1.99402 -54.0229 -0.00333866
510
root 10.3835 16.7997 35.7135 6.04207 4.44712 3.4545
lfemur 24.7945 1.17018 -24.6102
ltibia 8.7465e-14 0 0
lfoot -11.0984 4.66087 0.00277796
ltoes -17.7778 0 0
rfemur -42.7881 3.59231 17.6319
rtibia 35.8133 -0 0
rfoot -24.5665 -13.2811 0
rtoes -26.2908 0 0
lowerback -6.69165 -4.91608 -4.26224
upperback -0.225414 -6.30626 2.07669
thorax 4.20587 -3.23826 3.8581
lowerneck -24.4201 -2.74652 -9.96362
upperneck 23.373 -3.20143 10.8163
head 12.0944 -0.904749 5.24648
lclavicle 2.47487e-14 9.40918e-15 0
lhumerus -23.6753 -21.2901 93.0947
lradius 31.3738 -0 0
lwrist 4.73081 0 0
lhand -10.1286 -25.3506 0.00631157
lfingers 7.12502 0 0
lthumb 15.8595 4.01562 0.0051105
rclavicle 2.47487e-14 9.40918e-15 0
rhumerus -50.0238 1.50529 -80.1939
rradius 26.7401 -0 0
rwrist -11.1726 0 0
rhand -28.7068 -23.4118 -0.00215801
rfingers 7.12502 0 0
rthumb -2.06857 -53.3815 -0.00208659
511
root 10.3593 16.7956 35.8937 6.03474 4.33003 3.20225
lfemur 25.3965 1.2377 -24.1865
ltibia 1.04958e-13 0 0
lfoot -10.2859 4.7392 0
ltoes -19.429 0 0
rfemur -42.8349 3.04142 18.4132
rtibia 36.7303 0 0
rfoot -24.5665 -13.2811 0
rtoes -26.2908 0 0
lowerback -6.51761 -4.84229 -4.0056
upperback -0.31933 -6.23812 2.16265
thorax 3.98365 -3.1946 3.83495
lowerneck -24.5817 -2.75013 -9.88697
upperneck 23.3574 -3.18975 10.7133
head 12.1148 -0.901602 5.1959
lclavicle 1.87852e-14 1.35174e-14 0
lhumerus -24.5309 -20.4608 93.532
lradius 30.7793 0 0
lwrist 4.03326 0 0
lhand -9.55723 -25.0975 0
lfingers 7.12502 0 0
lthumb 16.41 4.22834 0
rclavicle 1.87852e-14 1.35174e-14 0
rhumerus -50.0876 1.04947 -79.7386
rradius 26.1552 0 0
rwrist -10.486 0 0
rhand -28.784 -22.7711 0
rfingers 7.12502 0 0
rthumb -2.14311 -52.7401 0
